<svg id="Warstwa_1" data-name="Warstwa 1" xmlns="http://www.w3.org/2000/svg" xmlns:xlink="http://www.w3.org/1999/xlink" viewBox="0 0 1600 1611"><defs><style>.cls-1,.cls-2,.cls-4,.cls-5{fill:none;}.cls-2{stroke:#cfcdca;}.cls-2,.cls-4,.cls-5{stroke-miterlimit:10;}.cls-3{fill:url(#Nowy_wzorek);}.cls-4{stroke:#0a81a5;}.cls-4,.cls-5{stroke-width:6px;}.cls-5{stroke:#097daa;}</style><pattern id="Nowy_wzorek" data-name="Nowy wzorek" y="5.5" width="185.5" height="212.5" patternUnits="userSpaceOnUse" viewBox="0 0 185.5 212.5"><rect class="cls-1" width="185.5" height="212.5"/><line class="cls-2" x1="61" x2="61" y2="212"/><line class="cls-2" x1="125" x2="125" y2="212"/><line class="cls-2" x1="185" x2="185" y2="212"/><line class="cls-2" y1="74" x2="185" y2="74"/><line class="cls-2" y1="135" x2="185" y2="135"/><line class="cls-2" x1="4" y1="212" x2="185" y2="212"/></pattern></defs><rect class="cls-3" width="1600" height="1611"/><path class="cls-4" d="M139.4,1158.61l-14.58.19a904.33,904.33,0,0,1,2.22,97.4l32.85-1a15.35,15.35,0,0,1-9.49,3.81" transform="translate(0 5.5)"/><path class="cls-4" d="M180.78,1175.48c-6.45-.7-12.06,5.34-13.27,11.72s.78,12.88,2.76,19.06c9.68.8,20.12,1.44,28.42-3.62s12.14-18.24,4.74-24.54c-4.46-3.8-11-3.69-16.79-3-4.76.58-9.7,1.51-13.47,4.46s-5.91,8.52-3.59,12.71" transform="translate(0 5.5)"/><path class="cls-4" d="M206.82,1209.43c3,7.56,6.09,15.83,3.81,23.65s-12.68,13.46-18.87,8.17" transform="translate(0 5.5)"/><path class="cls-4" d="M231.84,1167.67l-10.81-5a67.86,67.86,0,0,0,27.41.53L245,1238.66c-.25,5.46-.65,11.34-4.1,15.58s-11.14,5.33-14,.66" transform="translate(0 5.5)"/><path class="cls-4" d="M334.79,1173.47l-31.44-3.6a208.66,208.66,0,0,1-8.37,79.28l22.85.26h-3.71" transform="translate(0 5.5)"/><path class="cls-4" d="M395,1221.19c.4,7.1-5.1,13.51-11.65,16.27s-13.94,2.61-21,2c-4.12-.34-8.54-.93-11.58-3.73-5.62-5.19-3.14-15.09,2.56-20.18s13.44-7,20.44-10.09c21.36-9.35,13.47-38.86-4.88-25.86C349.94,1193.05,394.13,1205.94,395,1221.19Z" transform="translate(0 5.5)"/><path class="cls-4" d="M236.61,953.31c-23,.63-29.34-1.49-32.37,18.64s-1.82,40.79-5.92,61.17l28.56.09-5.19,5.47" transform="translate(0 5.5)"/><path class="cls-4" d="M252.51,971.55c-6.92,1.36-10.28,10.18-8,16.86S252.77,999.75,259,1003s13,5.7,18.57,10c2.6,2,5.08,4.94,4.64,8.2-.56,4.15-5.27,6.16-9.28,7.39-7.13,2.18-14.61,4.38-21.92,2.94s-14.22-7.87-13.46-15.28c.79-7.79,9-12.47,16.49-14.73s16-3.84,20.83-10c6.4-8.07,1.82-22.11-8.11-24.85s-21.06,7-19.7,17.19" transform="translate(0 5.5)"/><path class="cls-4" d="M302.66,1016.9v31.19" transform="translate(0 5.5)"/><path class="cls-4" d="M340,971.87c-10.27,5.5-13.06,21.22-5.31,29.92s23.68,7.75,30.33-1.82c6.77-9.74,2.27-24.84-8.21-30.41s-24.54-1.75-31.89,7.56a9.4,9.4,0,0,0,5.38,11.8" transform="translate(0 5.5)"/><path class="cls-4" d="M365.4,1015.28a20.24,20.24,0,0,1-27.92,26.45" transform="translate(0 5.5)"/><path class="cls-4" d="M387.23,962.46l-4.32-1a89.29,89.29,0,0,0,27.28,1.77l5.63,66.56c.5,5.85.91,12.12-2,17.21s-10.6,7.8-14.81,3.7" transform="translate(0 5.5)"/><path class="cls-4" d="M556.26,966l-18.66.19,4.15,71.83a18.19,18.19,0,0,0,1.16,6.4c2.15,4.78,8.19,6.76,13.35,5.9s9.65-3.91,14-6.88l-2.83,3.82" transform="translate(0 5.5)"/><path class="cls-4" d="M587.91,1000.38A12.24,12.24,0,0,1,586,976.85c2.55,2.86,2.47,7.1,2.84,10.92s2,8.24,5.71,9.09c4,.92,7.48-2.89,9.2-6.6s2.94-8.06,6.42-10.23q-2,31.51-4,63" transform="translate(0 5.5)"/><path class="cls-4" d="M587.92,1016.93a3.44,3.44,0,0,0-4,2.36l35.62-1.3" transform="translate(0 5.5)"/><path class="cls-4" d="M626.08,978.65l-5.19-6.88a47.72,47.72,0,0,0,24.52,1.48,339.36,339.36,0,0,1-5.49,80.86l-20.67-2.75,1.67-.06" transform="translate(0 5.5)"/><path class="cls-4" d="M702.37,979.06c-1.47-5.55-10.14-5.82-14-1.59s-4.26,10.51-4.43,16.25l-1.83,61.5a23.73,23.73,0,0,0,17.35-3.78" transform="translate(0 5.5)"/><path class="cls-4" d="M755.4,992.32l-.3-3.27c-4.73-5.36-14.1-3.68-19,1.53s-6.52,12.62-7.91,19.64c-1.33,6.73-2.63,13.62-1.68,20.41s4.59,13.6,10.78,16.54,14.91.63,17.42-5.76-2.65-14.33-9.47-15.78-14,2.5-17.83,8.35a14.73,14.73,0,0,1,10.45-4.68" transform="translate(0 5.5)"/><path class="cls-4" d="M771,979l26.23-2.49-3.63,72.16c-.11,2.19-.25,4.49-1.37,6.38-4.88,8.2-19.5-.25-26.65,6.08l5.35-.22" transform="translate(0 5.5)"/><path class="cls-4" d="M861.71,980.58l-28.87.83a819.1,819.1,0,0,1-2.29,84.66l25.66,1.36" transform="translate(0 5.5)"/><path class="cls-4" d="M863.8,1048.28c5.69.79,11.69,1.54,17-.65s9.39-8.44,7.14-13.72c-1.67-3.88-6.18-5.91-10.41-5.91s-8.26,1.63-12.18,3.23l4.94-26.64c-2.14.16-1.36.13-.07-1.58a19.64,19.64,0,0,1,17.26,7.62l4-7.73" transform="translate(0 5.5)"/><path class="cls-4" d="M904.13,972.85l-1.1,7,17.35-.9-2.93,74.84a54.15,54.15,0,0,1-26.73,7.16l12.24,2.75" transform="translate(0 5.5)"/><path class="cls-4" d="M986.37,983.06c-7.34-7.06-21.57-3.92-25.25,5.58-1.85,4.77-1.24,10.07-1,15.18a107.06,107.06,0,0,1-3.56,33.47c-1.42,5.26-3.26,10.47-3.6,15.91s1,11.31,5.13,14.92,11.2,3.92,14.62-.32" transform="translate(0 5.5)"/><path class="cls-4" d="M1002,1000.39l-8.16,30.17a17.38,17.38,0,0,0,20.43-7.83,71.1,71.1,0,0,1-6.75,28.58" transform="translate(0 5.5)"/><path class="cls-4" d="M1025.61,982.21a16.62,16.62,0,0,0,17.77.58,302.79,302.79,0,0,0-1,56.48c.66,8.59,1.61,17.63-2,25.44s-13.83,13.27-21.08,8.64" transform="translate(0 5.5)"/><path class="cls-4" d="M1103.83,989.39l-25.09.13q-.29,41.81-4.68,83.45l14.41.45-8.09-1" transform="translate(0 5.5)"/><path class="cls-4" d="M1109.68,1014.73l-1.19-1.1c1.27-6,11-6.87,14.5-1.77s1.13,12.6-3.74,16.4-11.43,4.65-17.61,4.51c5.19-1.51,10.49-3,15.88-2.73s11,2.72,13.62,7.42c4.68,8.3-2.38,19.25-11.44,22.19s-18.89.32-28-2.29l5.29-3.31" transform="translate(0 5.5)"/><path class="cls-4" d="M1129.22,989.86c3.93-4.39,11.79-2.16,15,2.76s3.2,11.21,3,17.09c-.56,21.2-1.11,42.39-2.3,63.56l-17.31,3a5.45,5.45,0,0,1,5-4.18" transform="translate(0 5.5)"/><path class="cls-4" d="M1198.81,996.8l-25.87,2.37,2.51,76.68,17.8.21" transform="translate(0 5.5)"/><path class="cls-4" d="M1208.52,1034.77c-.46-5.84-.91-11.78.4-17.49s4.67-11.25,10-13.72c8.26-3.83,18.75,1.42,22.6,9.67s2.1,18.24-2.31,26.2-11.18,14.3-17.83,20.51l-11.34,3.25,27.21,1.39" transform="translate(0 5.5)"/><path class="cls-4" d="M1249.39,995.26c-2.17-1.68-5.92,1-5.08,3.57l17-1.05.13,79.69-20.3,2.6a1.43,1.43,0,0,0,2.66,0" transform="translate(0 5.5)"/><path class="cls-4" d="M1318.45,1006.73l-33.25-.17a322.73,322.73,0,0,1-3.71,73.6,19.36,19.36,0,0,0,13.58-2.72" transform="translate(0 5.5)"/><path class="cls-4" d="M1320.77,1061.32l2.4,3.33a83,83,0,0,0,24.33-55.49q-1.85,38.83-6,77.52l.34-7.86" transform="translate(0 5.5)"/><path class="cls-4" d="M1355.6,996.27l25.3-2.3-1.27,82c-.08,5-.29,10.37-3.38,14.28-5.92,7.49-17.68,4.93-26.65,1.66a4.13,4.13,0,0,0,5.82,1.82l.18-3.86" transform="translate(0 5.5)"/><path class="cls-4" d="M283.66,793l2.54-14a385.42,385.42,0,0,1-6.6,87l28.6,1.5" transform="translate(0 5.5)"/><path class="cls-4" d="M285.39,768.19,277,760l33,1.68" transform="translate(0 5.5)"/><path class="cls-4" d="M317.37,781.92a86.5,86.5,0,0,0,44-.73q-5,35.38-10,70.78" transform="translate(0 5.5)"/><path class="cls-4" d="M322.83,824.29a230.76,230.76,0,0,0,55,.24l-3.66,8.93" transform="translate(0 5.5)"/><path class="cls-4" d="M409.05,829.8l-5.32,45.88" transform="translate(0 5.5)"/><path class="cls-4" d="M453.63,789c-1.77-4.78-8.65-6.13-12.88-3.29s-5.85,8.5-5.24,13.56,3.06,9.7,5.54,14.15q11.24,20.19,24.39,39.22a27.37,27.37,0,0,1-29.39,3.89c-4.57-2.24-8.7-6.24-9.34-11.29-1.22-9.58,9.78-15.89,19.21-18s20.69-4,24.85-12.68l.45-17.3a35.24,35.24,0,0,0-21.84-6.72" transform="translate(0 5.5)"/><path class="cls-4" d="M494,829.61,487.43,874" transform="translate(0 5.5)"/><path class="cls-4" d="M548.46,794.94l.3-8.87c9.49-2.74,20.68,3.63,23,13.24s-5,20.46-14.75,21.81-19.79-7.33-19.64-17.21S548,785.6,557.62,787.76c-3.68,12.79,5.59,33.13,6.77,46.38s1,27.63-6.74,38.49-25.37,15.3-34.4,5.51" transform="translate(0 5.5)"/><path class="cls-4" d="M584.87,772.76,581.63,778l16.34.67-.59,77c-.07,10-.32,20.57-5.69,29s-17.86,13.11-25.64,6.85l11.76.62" transform="translate(0 5.5)"/><path class="cls-4" d="M717.94,868.39a78.74,78.74,0,0,0-35-3.95l11-82.26c17.36.21,30.49-.53,47.1-5.58" transform="translate(0 5.5)"/><path class="cls-4" d="M730.9,851.91c10.35,5,24.44-3.92,24.44-15.4s-14.08-20.35-24.44-15.4l-2-22.55c9.78-1.22,18.94,4.94,28.73,3.72" transform="translate(0 5.5)"/><path class="cls-4" d="M785.5,840.86l-3.76,25.67" transform="translate(0 5.5)"/><path class="cls-4" d="M845.65,785.73l5,.32c-8.36-5.71-20.49-3.33-27.86,3.61S812.2,807,811.7,817.14c-.57,11.78,4.78,26.22,16.52,27.45,7.35.76,14.75-5.13,15.65-12.47s-4.87-14.84-12.19-15.87-14.93,4.61-16.08,11.91" transform="translate(0 5.5)"/><path class="cls-4" d="M869.83,770.53A8.38,8.38,0,0,0,881,767.71l-3.15,84.76c-.31,8.36-1.95,18.63-9.86,21.37-8.14,2.81-19.79-3.85-24.44,3.4" transform="translate(0 5.5)"/><path class="cls-4" d="M990.59,784.88,966,784.07,956.63,870l19.25.2" transform="translate(0 5.5)"/><path class="cls-4" d="M996.06,800.45l1.42-4.56c2.84-5.21,11.57-4.36,14.73.66s1.52,11.91-2.25,16.49-9.23,7.37-14.52,10c6.31-5.52,17.51-1.35,20.35,6.55s-1.42,17.07-8.27,21.91-15.66,6.06-24,5.72a5.49,5.49,0,0,1,3.29-7.57" transform="translate(0 5.5)"/><path class="cls-4" d="M1038.25,837.13l-7.34,36.69" transform="translate(0 5.5)"/><path class="cls-4" d="M1069.94,804.24,1060.58,841a90.76,90.76,0,0,0,31.25-12.4l-8,41.52a10.77,10.77,0,0,1-3.25-10.9" transform="translate(0 5.5)"/><path class="cls-4" d="M1100.76,792.82a35,35,0,0,0,29.59.62l-2.67,71c-.28,7.41-.75,15.38-5.37,21.19s-15,7.42-19,1.17" transform="translate(0 5.5)"/><path class="cls-4" d="M1199.65,802.74l-29.12-1.82a309.32,309.32,0,0,1-1.82,85.46l19.83-.52.13-4.7" transform="translate(0 5.5)"/><path class="cls-4" d="M1197.54,857.11,1226.45,815a128.17,128.17,0,0,1-7.89,62.65" transform="translate(0 5.5)"/><path class="cls-4" d="M1258.38,859.15a128,128,0,0,1-3.67,45.86" transform="translate(0 5.5)"/><path class="cls-4" d="M1287.36,825.68c-2.79-8.71,5.14-18.51,14.27-19s17.58,6.75,20,15.56-.23,18.48-5.48,26-12.78,13.07-20.61,17.8a46.44,46.44,0,0,0,28.93,4.83" transform="translate(0 5.5)"/><path class="cls-4" d="M1351.93,796.78l20.1.28L1363,897.35a38.49,38.49,0,0,0-25.64,9.55" transform="translate(0 5.5)"/><path class="cls-4" d="M359.52,681.21,334.24,681l8.38-93.38c13.45.58,20-2.76,33.43-2.18" transform="translate(0 5.5)"/><path class="cls-4" d="M382.12,668.22c6.4,7.85,20,8.2,26.75.69s5.09-21-3.37-26.54-21.5-1.85-25.73,7.35A54.29,54.29,0,0,0,383,617.08c8.75-7.07,17.09-13.75,27-8.42a9.72,9.72,0,0,1,4.56-10" transform="translate(0 5.5)"/><path class="cls-4" d="M438.71,664.72,437,699.58" transform="translate(0 5.5)"/><path class="cls-4" d="M507.27,602.53c-9.18-5.81-22-1-28.7,7.62s-8.64,19.79-10.43,30.51c-1.11,6.62-2.21,13.42-.87,20s5.71,13,12.18,14.75c6,1.64,12.55-1.07,16.93-5.48s6.94-10.29,9-16.15c1.33-3.76,2.45-8,.69-11.62-2.61-5.31-10.33-6-15.58-3.25s-8.8,7.79-12.85,12.11-9.44,8.25-15.33,7.61" transform="translate(0 5.5)"/><path class="cls-4" d="M532,668.37l-3.22,35.73-2.29-8.21" transform="translate(0 5.5)"/><path class="cls-4" d="M550.74,642.36c-2-8.51-4.06-17.51-1.48-25.86s11.61-15.38,19.88-12.52c9.07,3.13,11.18,14.79,11.79,24.37a31.66,31.66,0,0,0,13.52-21.19,220.74,220.74,0,0,1-11.25,77.68" transform="translate(0 5.5)"/><path class="cls-4" d="M557.65,659.16a102.23,102.23,0,0,0,49.54,2" transform="translate(0 5.5)"/><path class="cls-4" d="M640.18,659.2l-1.83,38.52" transform="translate(0 5.5)"/><path class="cls-4" d="M678.33,631.23l26.56,17.61c4.59,3,9.52,6.55,10.86,11.89,1.87,7.48-4.74,15-12.21,16.92s-15.32,0-22.77-2c-4.58-1.23-9.29-2.53-13-5.46s-6.21-8-4.76-12.47c2.79-8.63,14.93-7.75,23.85-9.4,9.41-1.75,17.83-8.75,20.62-17.9s-.55-20-8.4-25.5C677.5,589.82,650.51,612.79,678.33,631.23Z" transform="translate(0 5.5)"/><path class="cls-4" d="M743.71,668.34,745,700.81l-.25-6.76" transform="translate(0 5.5)"/><path class="cls-4" d="M774.74,606.75c-9.22,3-12.5,16.33-6.41,23.87s18.75,7.8,25.91,1.28,8.47-18.15,3.94-26.71c-2.91-5.5-8.54-10-14.76-9.73s-11.82,7.06-9.49,12.83" transform="translate(0 5.5)"/><path class="cls-4" d="M779.26,620.28c-1.19,6.86.43,13.86,2.21,20.58s3.74,13.57,3.25,20.51-4,14.12-10.4,16.89-15.32-.9-16.23-7.8" transform="translate(0 5.5)"/><path class="cls-4" d="M803.48,597.25,825,595.47a328.14,328.14,0,0,1-5.07,93.14,111.72,111.72,0,0,1-32.59,1.57c3.11,2.22,8.17-1.64,6.85-5.23" transform="translate(0 5.5)"/><path class="cls-4" d="M990.81,687.34a68.72,68.72,0,0,1-30,3.24l19-93.34c12.24.53,22.42-2.49,34.65-2" transform="translate(0 5.5)"/><path class="cls-4" d="M1007.19,656.45a122.53,122.53,0,0,1,41.32-36.12q-8.55,35.08-17.11,70.17" transform="translate(0 5.5)"/><path class="cls-4" d="M1075.53,659.27l-5.68,43.34-.42-8.55" transform="translate(0 5.5)"/><path class="cls-4" d="M1091.37,615.33c10.53-7.31,24.22-13.8,35.69-8.05,12.17,6.1,14.56,23.56,8.59,35.8s-17.73,20.43-29,28.08a47,47,0,0,0,35.44-4.53" transform="translate(0 5.5)"/><path class="cls-4" d="M1172.16,651.86a119.85,119.85,0,0,1-7.34,51.36" transform="translate(0 5.5)"/><path class="cls-4" d="M1193.49,627.91c1.62-8.95,8.63-17.08,17.6-18.63s19,4.72,20.28,13.72-7.92,18.26-16.72,15.91c7-6.64,20.31-2.07,23.34,7.12s-3,19.76-11.87,23.68-19.45,2.08-27.85-2.75" transform="translate(0 5.5)"/><path class="cls-4" d="M1265.56,659.17l-7.32,36.69" transform="translate(0 5.5)"/><path class="cls-4" d="M1295.57,609.66l-.39,39.3,31.73-7.42-13.49,45.18" transform="translate(0 5.5)"/><path class="cls-4" d="M1344.47,597.74l23.63,3.14L1362,698.8c-.37,5.94-.91,12.32-4.72,16.9-6.4,7.67-18.29,6.51-28.11,4.67,3.44,1.57,7.77-2.7,6.25-6.16" transform="translate(0 5.5)"/><path class="cls-4" d="M362.28,479a76.38,76.38,0,0,0-31.44-5.17l4.32-81c.24-4.5,1.51-8.76,6-8.74l-1.84,1.83c.1,2.45-3.47,1.23-3.37,3.67l21.61,2.11.11,5.23" transform="translate(0 5.5)"/><path class="cls-4" d="M395.2,434.59a125.3,125.3,0,0,0,34.05-43.41,291.67,291.67,0,0,1-18.56,84.5" transform="translate(0 5.5)"/><path class="cls-4" d="M454.91,461.08a113.8,113.8,0,0,1-7.34,38.53" transform="translate(0 5.5)"/><path class="cls-4" d="M471.78,417.57c3-6.66,6.19-13.5,11.48-18.56s13.28-8,20.09-5.31c10.91,4.31,12.44,19.3,9.58,30.67a79.47,79.47,0,0,1-31.87,45.74l47.23.14" transform="translate(0 5.5)"/><path class="cls-4" d="M572.31,444.57l-1.83,44" transform="translate(0 5.5)"/><path class="cls-4" d="M599.69,413.39c.46-8.95,8.43-16.88,17.38-17.3S634.7,402.83,636,411.7s-5,18.2-13.7,20.34c11.4-2.23,23.53,7.88,23.39,19.49S633.14,473,621.8,470.43" transform="translate(0 5.5)"/><path class="cls-4" d="M683.92,457.46a76.44,76.44,0,0,1-2.3,35.14" transform="translate(0 5.5)"/><path class="cls-4" d="M705.82,400.85c4.91,6.71,2.33,16,1.38,24.24s2.31,19.12,10.62,19.41c10.28.37,14.64-15.89,24.91-16.43q-3.5,25.69-7,51.38" transform="translate(0 5.5)"/><path class="cls-4" d="M775.93,462.92l1.83,33" transform="translate(0 5.5)"/><path class="cls-4" d="M813.25,474.61c9,6.53,22.94,4.66,29.87-4s5.68-22.7-2.65-30-22.43-6.71-30.11,1.29L809,417.06c11.58-3.2,15.64-7.06,27.22-10.26" transform="translate(0 5.5)"/><path class="cls-4" d="M884.16,472.09l-1.84,31.18" transform="translate(0 5.5)"/><path class="cls-4" d="M950.61,412.16c-6.8-1.44-13.89,2.09-18.52,7.28s-7.23,11.82-9.63,18.34c-3.65,9.93-7.06,20.65-4.53,30.93s13.46,19.16,23.43,15.63c7.17-2.54,11.34-11.44,8.69-18.57s-11.61-11.16-18.7-8.4-11,11.77-8.12,18.82" transform="translate(0 5.5)"/><path class="cls-4" d="M970.16,464.74l-1.78,33" transform="translate(0 5.5)"/><path class="cls-4" d="M994.11,441.1c-7.25-3.26-9.56-14.13-4.25-20.05,7.24,12.26,27.42,13.59,36.22,2.4a206.85,206.85,0,0,1-4.34,59.65" transform="translate(0 5.5)"/><path class="cls-4" d="M1001.5,456.43l46.64-2.87-6.22.19" transform="translate(0 5.5)"/><path class="cls-4" d="M1049.25,479.43v33" transform="translate(0 5.5)"/><path class="cls-4" d="M1098.65,463.66c6.24,6.14,13,12,17.6,19.41-18.92,11.84-46.38,7.24-60.41-10.13,6.28,7.78,74.84-13.83,52.51-44.07-4.78-6.46-13.06-13.37-21-8.31C1071.47,430.68,1091.13,456.27,1098.65,463.66Z" transform="translate(0 5.5)"/><path class="cls-4" d="M1136,473.9l1.62,31.19" transform="translate(0 5.5)"/><path class="cls-4" d="M1170.43,420.49c-8.16.79-13.09,10.93-10.38,18.66s10.93,12.51,19.08,13.39c10.49,1.14,22.85-5.43,23.18-16,.3-10-11.27-17.47-21-15.25s-16.59,11.58-18.63,21.35" transform="translate(0 5.5)"/><path class="cls-4" d="M1198.28,463.68c-5.45,8.7.18,20.31-2.29,30.29a18.9,18.9,0,0,1-33.58,6.65" transform="translate(0 5.5)"/><path class="cls-4" d="M1218,407.89h-5.22l34.62.33a261.08,261.08,0,0,0-3.44,65.34c.63,8.56,1.67,17.18.56,25.7s-4.7,17.11-11.62,22.2-17.53,5.58-23.66-.42" transform="translate(0 5.5)"/><path class="cls-4" d="M199.85,1136.56l-5-1.26,21-36.17" transform="translate(0 5.5)"/><path class="cls-4" d="M186.66,1102.05a59.24,59.24,0,0,0,27.55-32.79,92.73,92.73,0,0,1,7.5,50.34" transform="translate(0 5.5)"/><path class="cls-4" d="M360.12,1151.53,332,1103.11" transform="translate(0 5.5)"/><path class="cls-4" d="M315.5,1125.13l-.24-41.4,38.38,20.11" transform="translate(0 5.5)"/><path class="cls-4" d="M374.2,1125.13l4.23,22.71c-3.6-3.54-4.24-9.8-1.15-13.79s9.61-4.86,13.42-1.55,3.72,10.2-.37,13.15c-3.72-7.34,2.84-17.55,11.06-17.23a41,41,0,0,1,2.21,29.75" transform="translate(0 5.5)"/><path class="cls-4" d="M418.22,1145.31h.46l-1.72-1.89c-.75,2.12,1.26,4.44,3.49,4.75s4.4-.82,6.18-2.2a21.5,21.5,0,0,0,5.62-6.5,6.76,6.76,0,0,0,1.09-4.82c-.78-3.1-5.11-4-7.92-2.51s-4.41,4.55-5.84,7.4c-1.29,2.55-2.53,5.78-.83,8.07,1.09,1.46,3,2,4.84,2.26a43.91,43.91,0,0,0,13,.13" transform="translate(0 5.5)"/><path class="cls-4" d="M443.9,1132.93l7.56,15.23a17.12,17.12,0,0,1,6.06-17.26" transform="translate(0 5.5)"/><path class="cls-4" d="M478.74,1134.8a7.08,7.08,0,1,0,.27,14.14c3.56-.27,6.53-3.38,7.22-6.89a8.25,8.25,0,0,0-2.12-7.5,6.2,6.2,0,0,0-7.47-.87c-2.25,1.52-2.91,5.08-1.09,7.09" transform="translate(0 5.5)"/><path class="cls-4" d="M482.46,1141.17c-1.18,6,4.75,11.42,4.52,17.55a9,9,0,0,1-15.92,5.34" transform="translate(0 5.5)"/><path class="cls-4" d="M496.18,1145.31l-.44,3.12c2.91,1.67,6.76.08,8.94-2.47a10.09,10.09,0,0,0,2.53-7.22,7.31,7.31,0,0,0-4.26-6.13,7.18,7.18,0,0,0-6.7.91,9.43,9.43,0,0,0-3.62,5.84,10.71,10.71,0,0,0,5.95,11.68c4.35,1.85,10.05-.12,12.06-4.39" transform="translate(0 5.5)"/><path class="cls-4" d="M336.29,944.05a2.85,2.85,0,0,1-3.83,1.11L365,911" transform="translate(0 5.5)"/><path class="cls-4" d="M337.26,907.24a213.06,213.06,0,0,0,46.49-16.07L369,926" transform="translate(0 5.5)"/><path class="cls-4" d="M520.83,930.21l-1.36-26.06a53.71,53.71,0,0,1,24.13,7.12c.09,1.74-5.51,7.73-5.42,9.46l12.79,19" transform="translate(0 5.5)"/><path class="cls-4" d="M718.6,957.75l-2.14,8.09a82,82,0,0,1,23.13-40.71" transform="translate(0 5.5)"/><path class="cls-4" d="M705.76,926.18l.41,3.89,38.2-33.41,9.72,25.42" transform="translate(0 5.5)"/><path class="cls-4" d="M868.11,954l-19.47-24.32" transform="translate(0 5.5)"/><path class="cls-4" d="M820.36,948.11l-1.15-35.79,31.42,3.28" transform="translate(0 5.5)"/><path class="cls-4" d="M991.75,933.53a55.39,55.39,0,0,0,29.65-21.88c-.9,9.94-7.42,15.68-5.6,25.49a73.66,73.66,0,0,0-22.16,28.43l2-6.29" transform="translate(0 5.5)"/><path class="cls-4" d="M1110.68,966.82l-14-33.75" transform="translate(0 5.5)"/><path class="cls-4" d="M1070.3,952a125,125,0,0,0,10.45-34.1,51.12,51.12,0,0,1,25.76,6.94" transform="translate(0 5.5)"/><path class="cls-4" d="M1187.76,977a96.71,96.71,0,0,1,19.37-37" transform="translate(0 5.5)"/><path class="cls-4" d="M1178.42,936.63l28.42-21.4a35.34,35.34,0,0,0,9.8,17.75" transform="translate(0 5.5)"/><path class="cls-4" d="M1324.32,974a66.58,66.58,0,0,1-18-28.68" transform="translate(0 5.5)"/><path class="cls-4" d="M1287.78,961.89l-1.09-39.09,22.42,10.93" transform="translate(0 5.5)"/><path class="cls-4" d="M427,766.56a60.26,60.26,0,0,1,28.72-25" transform="translate(0 5.5)"/><path class="cls-4" d="M437.32,738.94l30.6-17.75,1.54,34.32" transform="translate(0 5.5)"/><path class="cls-4" d="M771.54,757a51.91,51.91,0,0,1-23.43-23.1" transform="translate(0 5.5)"/><path class="cls-4" d="M728.19,743.13l-4.63-22.38L748.9,722" transform="translate(0 5.5)"/><path class="cls-4" d="M1031.07,771.87a52,52,0,0,1,16-31.73" transform="translate(0 5.5)"/><path class="cls-4" d="M1022.71,743.17l13-20c1.51-2.32,3.36-4.86,6.1-5.21,3.84-.48,6.63,3.57,7.92,7.22s2.48,7.94,6,9.52" transform="translate(0 5.5)"/><path class="cls-4" d="M1228.23,768.83A95.89,95.89,0,0,1,1206,741.55" transform="translate(0 5.5)"/><path class="cls-4" d="M1186.47,758.23l-6.77-28.79,28.67-3" transform="translate(0 5.5)"/><path class="cls-4" d="M665.77,577.94a203.57,203.57,0,0,0,46.93-41.52" transform="translate(0 5.5)"/><path class="cls-4" d="M682.13,536.6a70,70,0,0,0,33-19.45q8.39,17.15,16.79,34.29" transform="translate(0 5.5)"/><path class="cls-4" d="M1070.84,582.09a287,287,0,0,1-55.1-37" transform="translate(0 5.5)"/><path class="cls-4" d="M998.12,568.08a79.74,79.74,0,0,1-26.64-35.18l45.62-3.65" transform="translate(0 5.5)"/><path class="cls-4" d="M614.29,90C596,81.49,573,84.44,557.45,97.26s-22.83,34.86-18,54.42a89.54,89.54,0,0,0,45.62-1" transform="translate(0 5.5)"/><path class="cls-4" d="M621.76,128.08c-12.47.62-20.18,17-14.23,28s21.58,14.38,32.69,8.68c9.74-5,16.11-16.3,14.5-27.13s-11.63-20-22.58-19.91-21,10.22-20.37,21.15" transform="translate(0 5.5)"/><path class="cls-4" d="M679.05,128.4l-16.32,42.19c4.34-26.42,26.94-48.81,53.41-52.9A94.3,94.3,0,0,1,686,175.91" transform="translate(0 5.5)"/><path class="cls-4" d="M746.68,132.34c-8.1-4.67-19.84,1.83-21,11.12s7.58,18.19,16.94,18.12,17.67-8.17,18.94-17.44c.91-6.68-2-14.26-8.15-17s-14.85,1.71-14.75,8.45" transform="translate(0 5.5)"/><path class="cls-4" d="M740.64,150.14l-13.21,53.1" transform="translate(0 5.5)"/><path class="cls-4" d="M792.65,126.15c-3.42,7.81-6.91,15.95-6.7,24.48s5.26,17.57,13.56,19.54c8,1.9,16.38-3.48,20.57-10.61s5.16-15.63,6-23.85" transform="translate(0 5.5)"/><path class="cls-4" d="M851.37,150.28l-1.69,7c7.86-1.37,16-2.87,22.39-7.69s10.12-14.05,6.23-21-14-8.61-21.58-5.76c-12.8,4.8-20.42,21-14.82,33.46s24.15,17.16,34.28,8" transform="translate(0 5.5)"/><path class="cls-4" d="M898.31,132a46.59,46.59,0,0,1,2.38,34.83c4.06-26.19,30.14-47,56.58-45.15" transform="translate(0 5.5)"/><path class="cls-1" d="M415.93,1182.68l-7.1,6.23a30.92,30.92,0,0,0,29.67,10.88c-3.82,13.09-2.28,27.14-4.74,40.56s-11.23,27.6-24.8,28.86" transform="translate(0 5.5)"/><path class="cls-5" d="M502.17,216.47,950,228.65l-8.86,4.84" transform="translate(0 5.5)"/><path class="cls-5" d="M401.76,1181.81c3.29-5.22,12-3.87,15.76,1s4.12,11.49,4.28,17.66q.84,32.3,1.67,64.6l-33,1.61" transform="translate(0 5.5)"/></svg>