<svg id="Warstwa_1" data-name="Warstwa 1" xmlns="http://www.w3.org/2000/svg" viewBox="0 0 1149 978"><defs><style>.cls-1{fill:#3a3a3a;}.cls-2{fill:#509c51;}.cls-3{fill:#a9003d;}.cls-4{fill:none;}.cls-4,.cls-5{stroke:#000;stroke-miterlimit:10;stroke-width:3px;}.cls-19,.cls-6{font-size:54px;font-family:MyriadPro-Regular, Myriad Pro;}.cls-6{fill:#fff;}.cls-7{letter-spacing:-0.03em;}.cls-8{letter-spacing:0.02em;}.cls-9{letter-spacing:0em;}.cls-10{letter-spacing:-0.01em;}.cls-11{letter-spacing:0em;}.cls-12{letter-spacing:-0.01em;}.cls-13{letter-spacing:-0.02em;}.cls-14{letter-spacing:0em;}.cls-15{letter-spacing:0.01em;}.cls-16{letter-spacing:-0.01em;}.cls-17{letter-spacing:-0.01em;}.cls-18{letter-spacing:0.02em;}</style></defs><circle class="cls-1" cx="586" cy="165" r="156"/><circle cx="573" cy="156" r="156"/><circle class="cls-1" cx="169" cy="817" r="156"/><circle class="cls-2" cx="156" cy="808" r="156"/><circle class="cls-1" cx="993" cy="822" r="156"/><circle class="cls-3" cx="980" cy="813" r="156"/><line class="cls-4" x1="481" y1="282" x2="221" y2="666"/><line class="cls-4" x1="698.5" y1="273.5" x2="906.5" y2="675.5"/><line class="cls-4" x1="429.5" y1="783.5" x2="741.5" y2="783.5"/><path class="cls-5" d="M964.61,1004.7s3.36,26.88,0,53.91l48.39-25.69A508.64,508.64,0,0,0,964.61,1004.7Z" transform="translate(-236 -235)"/><path class="cls-5" d="M666,1046.07s-3.44-27.52,0-55.2l-49.54,26.3A521.07,521.07,0,0,0,666,1046.07Z" transform="translate(-236 -235)"/><text class="cls-6" transform="translate(488.53 130.34)"><tspan class="cls-7">P</tspan><tspan x="27.32" y="0">a</tspan><tspan class="cls-8" x="53.35" y="0">r</tspan><tspan class="cls-9" x="72.31" y="0">tition </tspan><tspan class="cls-10" x="-9.18" y="80">t</tspan><tspan x="8.37" y="80">ole</tspan><tspan class="cls-11" x="77.81" y="80">r</tspan><tspan x="95.2" y="80">an</tspan><tspan class="cls-12" x="151.2" y="80">c</tspan><tspan x="175.07" y="80">e</tspan></text><text class="cls-6" transform="translate(32.11 819.85)"><tspan class="cls-13">A</tspan><tspan class="cls-14" x="31.91" y="0">v</tspan><tspan x="57.67" y="0">ailabili</tspan><tspan class="cls-15" x="203.85" y="0">t</tspan><tspan x="222.21" y="0">y</tspan></text><text class="cls-6" transform="translate(844.54 820.27)"><tspan class="cls-16">C</tspan><tspan x="30.73" y="0">onsis</tspan><tspan class="cls-17" x="145.75" y="0">t</tspan><tspan x="163.29" y="0">en</tspan><tspan class="cls-18" x="220.32" y="0">c</tspan><tspan x="245.48" y="0">y</tspan></text><text class="cls-19" transform="translate(492.42 730.27)">choose</text></svg>