<svg id="Warstwa_1" data-name="Warstwa 1" xmlns="http://www.w3.org/2000/svg" xmlns:xlink="http://www.w3.org/1999/xlink" viewBox="0 0 1600 1611"><defs><style>.cls-1,.cls-2,.cls-5{fill:none;}.cls-2{stroke:#cfcdca;}.cls-2,.cls-5{stroke-miterlimit:10;}.cls-3{fill:url(#Nowy_wzorek);}.cls-4{fill:url(#Nowy_wzorek-3);}.cls-5{stroke:#097daa;stroke-width:6px;}</style><pattern id="Nowy_wzorek" data-name="Nowy wzorek" y="5.5" width="185.5" height="212.5" patternUnits="userSpaceOnUse" viewBox="0 0 185.5 212.5"><rect class="cls-1" width="185.5" height="212.5"/><line class="cls-2" x1="61" x2="61" y2="212"/><line class="cls-2" x1="125" x2="125" y2="212"/><line class="cls-2" x1="185" x2="185" y2="212"/><line class="cls-2" y1="74" x2="185" y2="74"/><line class="cls-2" y1="135" x2="185" y2="135"/><line class="cls-2" x1="4" y1="212" x2="185" y2="212"/></pattern><pattern id="Nowy_wzorek-3" data-name="Nowy wzorek" width="185.5" height="212.5" patternUnits="userSpaceOnUse" viewBox="0 0 185.5 212.5"><rect class="cls-1" width="185.5" height="212.5"/><line class="cls-2" x1="61" x2="61" y2="212"/><line class="cls-2" x1="125" x2="125" y2="212"/><line class="cls-2" x1="185" x2="185" y2="212"/><line class="cls-2" y1="74" x2="185" y2="74"/><line class="cls-2" y1="135" x2="185" y2="135"/><line class="cls-2" x1="4" y1="212" x2="185" y2="212"/></pattern></defs><rect class="cls-3" width="1600" height="1611"/><path class="cls-4" d="M1599-4.5v1609H1V-4.5H1599m1-1H0v1611H1600V-5.5Z" transform="translate(0 5.5)"/><path class="cls-5" d="M343.6,246.35a41.91,41.91,0,0,1-26.3,9.5L312.57,337c-.42,7.16-.21,15.67,5.73,19.7,7.68,5.2,19.47-1.08,26.87,4.51" transform="translate(0 5.5)"/><path class="cls-5" d="M383.84,280.32a15,15,0,0,0-17.63,23c3.24,4.2,8.56,6.42,13.85,6.81s10.56-.88,15.57-2.61c5.36-1.85,11-4.7,13.13-9.95,3-7.27-2.81-15.89-10.3-18.27s-15.69,0-22.67,3.59l2.57,3.18" transform="translate(0 5.5)"/><path class="cls-5" d="M409.06,308c-1.91,6.94-.26,14.28.65,21.42s.83,15.08-3.76,20.62-12.43,7.06-19.29,5.49-12.79-5.87-17.94-10.66l6.19-.24" transform="translate(0 5.5)"/><path class="cls-5" d="M436.45,346.5a55.52,55.52,0,0,0,.44,25.76" transform="translate(0 5.5)"/><path class="cls-5" d="M463.11,289.62c-2.27,4.81-2.76,11.16,1,14.92,3.47,3.47,9,3.38,13.91,3.28,7.71-.16,15.66.25,22.65,3.48s12.88,9.86,13.22,17.56-5,14.91-11.78,18.7-14.72,4.79-22.47,5.13c-4.59.2-9.26.18-13.65-1.16s-8.5-4.18-10.42-8.35-1.38-9.19.59-13.34a32.25,32.25,0,0,1,8.78-10.5A66.89,66.89,0,0,1,487.15,307c12.27-4,29.75-17.85,12.86-29.89C488.09,268.63,468.68,277.84,463.11,289.62Z" transform="translate(0 5.5)"/><path class="cls-5" d="M527.89,343.75a95.72,95.72,0,0,1-1.46,30.48" transform="translate(0 5.5)"/><path class="cls-5" d="M542.81,302.64a45.06,45.06,0,0,1-1.8-17.31c.32-3.36,1.29-7.1,4.22-8.77,4.58-2.6,9.87,1.46,14.39,4.16a30.45,30.45,0,0,0,34.43-2.85L568.24,358.7l-.72-2.13" transform="translate(0 5.5)"/><path class="cls-5" d="M551.81,330.18a164.86,164.86,0,0,0,34.69-.25,3,3,0,0,0-3.28,1.91" transform="translate(0 5.5)"/><path class="cls-5" d="M627.26,339.15l-2.74,34.93" transform="translate(0 5.5)"/><path class="cls-5" d="M699.39,282.76c1.62.34,2.71-2,1.88-3.45s-2.62-1.95-4.26-2.17c-12.71-1.73-24.91,7.54-30.55,19.07s-6.08,24.84-6,37.67c0,4.84.27,10.09,3.34,13.83,2.65,3.23,6.9,4.66,11,5.49,9.24,1.86,20.64.45,25.22-7.79,3.23-5.8,1.71-13.57-2.85-18.4s-11.62-6.83-18.22-6.09-12.74,3.95-17.84,8.21" transform="translate(0 5.5)"/><path class="cls-5" d="M718.8,347.4a41.42,41.42,0,0,1-5.72,24.23" transform="translate(0 5.5)"/><path class="cls-5" d="M791.27,287.57c-1.91,1.19-4.46,0-6-1.63s-2.59-3.75-4.41-5.07c-3.69-2.68-9-1.07-12.65,1.67s-6.56,6.5-10.62,8.59-10.06,1.65-12-2.49l-2.34,31.88c6.81-6.9,15.27-14.38,24.82-12.74a19.21,19.21,0,0,1,11.19,6.92c8.62,10.33,7.07,27.57-3.25,36.21s-27.57,7.11-36.22-3.2l1,2.48" transform="translate(0 5.5)"/><path class="cls-5" d="M803,345.55l-2,32.12-1.44-4.61" transform="translate(0 5.5)"/><path class="cls-5" d="M828,286.86l-1.84,7.34,2.38-7-4.12,27c-.23,1.55-.39,3.35.7,4.47,1.38,1.4,3.73.78,5.56.06l25.78-10.09L842.6,361.58l.08-4.1" transform="translate(0 5.5)"/><path class="cls-5" d="M878.45,349.23V374" transform="translate(0 5.5)"/><path class="cls-5" d="M902.3,296l-.15,3.51c.54-9.16,9.41-17,18.57-16.39s16.93,9.53,16.27,18.68S927.35,318.7,918.2,318a19.91,19.91,0,0,1,21.48,1.95c7.41,6,9.35,17.46,5,25.93s-14.23,13.5-23.73,12.88-18.32-6.48-23.32-14.59" transform="translate(0 5.5)"/><path class="cls-5" d="M958.25,345.56l-.92,29.13v-2.53" transform="translate(0 5.5)"/><path class="cls-5" d="M978,306c-.54-5.86,2.53-11.68,7.06-15.45s10.33-5.71,16.15-6.61c4-.61,8.6-.53,11.24,2.49a12.38,12.38,0,0,1,2.34,5.46c6.06,25.91-4,54.9-24.8,71.49,3.22-5,10.61-4.34,16.41-3.05s13.15,2.05,16.5-2.86l-3-2.21" transform="translate(0 5.5)"/><path class="cls-5" d="M1061.89,355.65l0-2.48a62.68,62.68,0,0,1-.66,26.4" transform="translate(0 5.5)"/><path class="cls-5" d="M1080.15,329.31c3.21,1.31,7,.09,9.64-2.15s4.38-5.35,6-8.38l15.47-28q2.94,39.71,2.81,79.55" transform="translate(0 5.5)"/><path class="cls-5" d="M1126.81,271.74l-3.63,1.59a61.15,61.15,0,0,0,30.72.78,777.21,777.21,0,0,0,2.86,121.76,57,57,0,0,1-23.33,8.39" transform="translate(0 5.5)"/><path class="cls-5" d="M266.93,637.11a5.31,5.31,0,0,0-6.55-2.49l1.44,4.51c6.64,6.12,17.95,4.18,24.53-2s9.43-15.32,11.24-24.16c3.88-19,16.35-65.24-11.72-71.28-16.95-3.64-39.09,18-28.92,34.68,2.51,4.11,6.71,7,11.21,8.69,9.09,3.49,20.11,2.43,27.63-3.76a21.32,21.32,0,0,0,7.71-14.62" transform="translate(0 5.5)"/><path class="cls-5" d="M322.94,623.43l-2.72,35.77" transform="translate(0 5.5)"/><path class="cls-5" d="M374.79,540.46c-9.55,3.85-15.33,15.28-12.76,25.25,4.28,16.59,26.05,22.94,32.55,38.79,4.2,10.22.22,23.2-9.1,29.14s-22.9,4-30-4.44-6.67-22.34,1.12-30.16c10-10,27.88-9,37.1-19.77a20.73,20.73,0,0,0,4.41-17.7C395.88,551.67,386.45,535.77,374.79,540.46Z" transform="translate(0 5.5)"/><path class="cls-5" d="M428.42,620.72v39.44" transform="translate(0 5.5)"/><path class="cls-5" d="M447.36,571.18a7,7,0,0,1-5.44,3.78A33.72,33.72,0,0,1,444,548.79c2.22-4.21,6.68-8.36,11.16-6.77,4.13,1.46,5.27,6.64,7.93,10.12a12.16,12.16,0,0,0,21.46-4.44l-9.84,85.39-.75-3.2" transform="translate(0 5.5)"/><path class="cls-5" d="M456.66,589.58l-.94,3.86,34-4.86" transform="translate(0 5.5)"/><path class="cls-5" d="M524.51,626.23,523.67,662" transform="translate(0 5.5)"/><path class="cls-5" d="M581.38,560.33,579.25,562c-1.1-6.8-10.2-9.79-16.45-6.92s-9.91,9.48-12.2,16a73.92,73.92,0,0,0-1.8,43c1.16,4.41,3,9,6.81,11.48s8.67,2.18,13,1c8.14-2.13,16.21-8.51,16.22-16.92s-8.92-15.13-17.34-14.39-15.48,7.4-18.65,15.23" transform="translate(0 5.5)"/><path class="cls-5" d="M605.4,623.51,600.87,652" transform="translate(0 5.5)"/><path class="cls-5" d="M629,638.15l.43,2.48c8.5,4.18,19.53.92,25.56-6.38s7.4-17.76,4.95-26.91c-2.12-7.91-7.06-15.2-14.1-19.39s-16.2-5-23.53-1.32l1.19-19.11c.21-3.29.41-2.49,2.42-5.1s5.59-4.32,8.67-3.15c4.13,1.56,5.12,6.91,8.1,10.16a9.83,9.83,0,0,0,17-5.51" transform="translate(0 5.5)"/><path class="cls-5" d="M252.06,537.67l-38.85-3.94a1117.25,1117.25,0,0,1-5.1,119.68l39.52,5.12" transform="translate(0 5.5)"/><path class="cls-5" d="M659.21,554.58a2.68,2.68,0,0,1,2.64,3.57,112.77,112.77,0,0,0,30.42-1l-6.85,107.48L654,662.11a11.74,11.74,0,0,0,7.72,3.74l.53-4.75" transform="translate(0 5.5)"/><path class="cls-5" d="M850,561.61l-34.37.71a186.92,186.92,0,0,1-4.94,87.1c-.89,3-1.77,6.48.15,8.91,1.72,2.16,4.86,2.39,7.62,2.45l23.29.45" transform="translate(0 5.5)"/><path class="cls-5" d="M879.28,581.48l-8.93,36.28A50.46,50.46,0,0,0,896.22,612a154.73,154.73,0,0,0-11.59,41.72" transform="translate(0 5.5)"/><path class="cls-5" d="M923.29,637.21l-6.45,27.5" transform="translate(0 5.5)"/><path class="cls-5" d="M935.2,587.7c0-7.84,6.48-15,14.2-16.33s15.92,2.85,19.9,9.6,3.81,15.58.14,22.5a28.64,28.64,0,0,1-18.17,13.83,21.42,21.42,0,0,1,15.39-1.5,15.74,15.74,0,0,1,10.66,10.76c2.08,8.38-4.49,17-12.51,20.19s-17,2.46-25.6,1.65l15.37-.16" transform="translate(0 5.5)"/><path class="cls-5" d="M1001.93,645.46l-1.72,30.28" transform="translate(0 5.5)"/><path class="cls-5" d="M1021.9,616c-2-4.75-1.18-10.3,1.05-14.93s5.76-8.49,9.39-12.13c4.48-4.49,10.56-9.08,16.59-7.09,6.27,2.08,8.29,9.95,8.21,16.56a60.45,60.45,0,0,1-27.23,49.2c2.08-4.26,8.06-4.76,12.59-3.37s8.82,4.06,13.55,4,9.78-4.9,7.6-9.11" transform="translate(0 5.5)"/><path class="cls-5" d="M1090.19,638.88a320.8,320.8,0,0,0-.7,37l-.08-4.66" transform="translate(0 5.5)"/><path class="cls-5" d="M1107.64,627.93a181,181,0,0,0,39.74-48.54l-5.64,79.93" transform="translate(0 5.5)"/><path class="cls-5" d="M1153.61,565.13l28-.06-9.47,113c-.17,2-.43,4.17-1.89,5.52-2.9,2.67-7.41.06-10.63-2.22s-8.71-3.61-10.24,0" transform="translate(0 5.5)"/><path class="cls-5" d="M170.34,820.85l-31.18-.72a689.29,689.29,0,0,1-7,130c4.18,2.89,9.72,2.65,14.75,1.88s10.23-1.91,15.1-.46,9.08,6.67,7.33,11.44" transform="translate(0 5.5)"/><path class="cls-5" d="M195.09,871.17c-4.8,1-8.51,5.35-9.53,10.15a18.65,18.65,0,0,0,3.1,14,24.24,24.24,0,0,0,26.69,9.44,23.94,23.94,0,0,0,16.26-23.11c-.51-12.27-12.45-22.93-24.69-21.86s-22.18,13.87-20,26" transform="translate(0 5.5)"/><path class="cls-5" d="M235.43,906.36l-1.58-9.17a130.13,130.13,0,0,1,3.61,34.11c-.1,3.6-.4,7.38-2.38,10.39-2.82,4.27-8.26,5.89-13.32,6.64a69,69,0,0,1-26.93-1.4" transform="translate(0 5.5)"/><path class="cls-5" d="M259.94,933.93l2.7,24.77" transform="translate(0 5.5)"/><path class="cls-5" d="M328.65,902.46c5.7,3.3,10.38,9.38,9.81,15.94-.72,8.27-9,13.67-16.86,16.39-10.9,3.78-23.58,4.72-33.52-1.15s-15.19-20.14-8.6-29.61c9-12.93,33.14-8.84,39.17-24.39,5.57-14.34-8.54-20.26-20.13-18.64-8.72,1.23-19.2,6.44-18.09,16.42C282.45,895.51,317.14,895.78,328.65,902.46Z" transform="translate(0 5.5)"/><path class="cls-5" d="M365.74,916.06v33" transform="translate(0 5.5)"/><path class="cls-5" d="M363.17,884.4a114.56,114.56,0,0,1,0-20.54c.23-2.51.72-5.34,2.81-6.74,3-2,7.08.24,9.24,3.11s3.54,6.47,6.49,8.52c4.89,3.42,12.09.81,15.68-4s4.49-11,5.29-16.87l7,83.27" transform="translate(0 5.5)"/><path class="cls-5" d="M383.64,907.73a43.07,43.07,0,0,0,33.79-5.6" transform="translate(0 5.5)"/><path class="cls-5" d="M425.89,836.59a39.46,39.46,0,0,0,16.5-1l9.84,119.7c.27,3.33.45,7-1.56,9.68-3,4-9,3.59-13.82,2.38s-10.25-2.8-14.47-.18" transform="translate(0 5.5)"/><path class="cls-5" d="M554.4,848a67.16,67.16,0,0,0-26-1.93q-.93,54.24-1.84,108.47L557,952" transform="translate(0 5.5)"/><path class="cls-5" d="M604.93,877.57c-3.37-7.67-13.5-11.5-21.1-8-8.09,3.75-11.46,13.3-13.48,22s-3.47,17.71-1.61,26.4,7.67,17,16.17,19.62,19.22-2.42,20.81-11.16c1.65-9.11-7.46-17.76-16.72-17.67s-17.41,7-21.41,15.36" transform="translate(0 5.5)"/><path class="cls-5" d="M618.89,927.06a95.83,95.83,0,0,1,4.12,34.4" transform="translate(0 5.5)"/><path class="cls-5" d="M635,949.53c7.27,8.63,22.51,6.63,29.47-2.25s6.54-21.9,1.64-32.06c-2.91-6-7.6-11.61-14-13.59s-14.47.81-16.7,7.12L634,881.66c-.27-5.31-2-2.35-1.63-7.66,5,3.84,10.31,7.77,16.5,9.13s13.6-.66,16.53-6.28" transform="translate(0 5.5)"/><path class="cls-5" d="M673.91,861a69.66,69.66,0,0,0,35.66-2.2c-5.12,26.72-.18,54.18,1.31,81.34.41,7.46.43,15.44-3.6,21.73s-13.63,9.5-19.17,4.49" transform="translate(0 5.5)"/><path class="cls-5" d="M889.93,863.25l-40.64.82-5,99.91,38.65.48a6.56,6.56,0,0,1-5.47,5.06" transform="translate(0 5.5)"/><path class="cls-5" d="M905.11,885.55l-6.78,36.29a131.67,131.67,0,0,0,30.26-11.13,297.6,297.6,0,0,1-5.71,53.49" transform="translate(0 5.5)"/><path class="cls-5" d="M953.2,942.2v48.15" transform="translate(0 5.5)"/><path class="cls-5" d="M968.47,890.17c-4-5.25-1.09-13.78,4.91-16.49s13.55-.07,17.56,5.15,4.82,12.4,3.33,18.81-5,12.17-9.06,17.38c9.34-4.67,21.78.47,26.39,9.84s1.89,21.35-5.25,29-18,11.1-28.39,10.81" transform="translate(0 5.5)"/><path class="cls-5" d="M1005.38,873.47a91.85,91.85,0,0,0,37.45,4.45c-3.53,7.43-3.83,15.94-4.07,24.17l-2.37,81.06-24.05,1.27" transform="translate(0 5.5)"/><path class="cls-5" d="M1162.6,885.21c-5.17-1.36-10.48-2.73-15.81-2.2s-10.75,3.38-12.84,8.31a22.76,22.76,0,0,0-1.3,7.79q-2.1,44.17-4.21,88.35l28.38,2.89" transform="translate(0 5.5)"/><path class="cls-5" d="M1183.91,922.49c-2.44-8.49,2.69-18.44,11-21.38,10.72-3.79,23.1,4.42,26.37,15.31s-.94,22.93-8.09,31.77-16.92,15.1-26.52,21.2l47.17.19" transform="translate(0 5.5)"/><path class="cls-5" d="M1259,957.41a175.73,175.73,0,0,0-4.56,42.07l.07-3.63" transform="translate(0 5.5)"/><path class="cls-5" d="M1269.82,935.46a382,382,0,0,0,27.67-44.05,304.71,304.71,0,0,1-8.52,91.05" transform="translate(0 5.5)"/><path class="cls-5" d="M1312.29,892.67l-3.51-.39a32.09,32.09,0,0,0,28.84,2l-10.17,104.24-21.61,1.45a3.23,3.23,0,0,0,3.77-1.32" transform="translate(0 5.5)"/><path class="cls-5" d="M148.29,1078.41l-30.76-2.23-.42,106.67,21.6-5.49" transform="translate(0 5.5)"/><path class="cls-5" d="M198.1,1092.2c-10.06-.69-20.53,7-21.25,17.06s10.43,19.54,19.83,15.88c9.65-3.76,11.67-16.28,12.2-26.63.36-7-.74-16.16-7.58-17.82-4.05-1-8.29,1.56-10.58,5s-3.05,7.72-3.76,11.82" transform="translate(0 5.5)"/><path class="cls-5" d="M204.77,1132.07l-.59-3.81.14,35.81c0,5.16-.21,10.94-3.92,14.53-3.48,3.36-9.1,3.6-13.62,1.87s-8.19-5.07-11.76-8.35l5-.16" transform="translate(0 5.5)"/><path class="cls-5" d="M229.54,1169.2l.34,33.2a1,1,0,1,0,.72-1.07" transform="translate(0 5.5)"/><path class="cls-5" d="M294.78,1138.78c4.77,3.33,8.78,8.55,8.55,14.36-.38,9.38-10.79,14.69-19.85,17.17-6.27,1.71-12.89,3-19.23,1.64s-12.34-6.21-13.28-12.64c-1.35-9.27,7.91-16.82,17-19.28,17.68-4.8,39.45-4.17,43.14-27.21,2.45-15.22-7.84-27.75-22.66-29.84-11.17-1.57-23.67,3-27.1,14.57C254.46,1120.56,280.9,1129.09,294.78,1138.78Z" transform="translate(0 5.5)"/><path class="cls-5" d="M320.59,1090.19l14.73-4.65-4.84,87.35c-.17,3-.39,6.24-2.08,8.76-3,4.53-9.4,5.12-14.83,4.72s-11.39-1.18-15.89,1.88a24,24,0,0,0,16.11-1.89" transform="translate(0 5.5)"/><path class="cls-5" d="M415.27,1096.29l-31.51.24a421.18,421.18,0,0,1-1.18,103l27.22-2.31" transform="translate(0 5.5)"/><path class="cls-5" d="M421.16,1134.66c1-4.92,2.22-10.13,5.74-13.72s10.22-4.52,13.3-.54c2.39,3.08,1.84,7.9,4.67,10.58,3.16,3,8.78,1.19,11.21-2.42s2.56-8.24,2.61-12.59q-.29,39-.56,78" transform="translate(0 5.5)"/><path class="cls-5" d="M429,1169.73a91.6,91.6,0,0,0,43.63-6.12l-3.68.09" transform="translate(0 5.5)"/><path class="cls-5" d="M463.42,1105.15l24.71-.39,9.49,110.86-15.82,1.71,3.84-3.9" transform="translate(0 5.5)"/><path class="cls-5" d="M578.71,1107.75c-5.21-1.4-10.53-2.81-15.91-2.5s-10.94,2.66-13.76,7.27c-2.65,4.33-2.44,9.76-2.16,14.83q2.29,40.37,4.58,80.71l27.5,1.47" transform="translate(0 5.5)"/><path class="cls-5" d="M621.75,1129.77c4.21.66,7.33-5.08,5.32-8.84s-7.17-4.91-11.21-3.57-7.15,4.59-9.79,7.94a74,74,0,0,0-15.55,40.12c-.45,6.17,0,12.81,3.75,17.75a15.62,15.62,0,1,0,9.19-24.64c-8.13,1.78-13.6,9.93-14.89,18.15l4.17-8.85" transform="translate(0 5.5)"/><path class="cls-5" d="M629.87,1107.2c2.71-.68,2.17-5.67-.62-5.76s-3.66,4.85-1,5.71a40.29,40.29,0,0,0,24.92-3.41,478.56,478.56,0,0,0-8.37,90.64c0,5.93.05,12.24-3.11,17.26s-10.85,7.61-15.13,3.51c-.57,1.5,2.49,2.33,2.76.75" transform="translate(0 5.5)"/><path class="cls-5" d="M693.33,1120.17l5.32-1.67a67.15,67.15,0,0,0-30.3-1.16l-9,80.94c-.3,2.73-.57,5.64.65,8.1,2.29,4.62,8.56,5.43,13.66,4.64s10.39-2.55,15.25-.85l-5.23-1.53" transform="translate(0 5.5)"/><path class="cls-5" d="M732.65,1144.06c-7.59,7.06-15.69-.41-23.37,10.87-3.63,5.34-6.16,12.86-4.28,18.92,11.17-5.29,35.6-5.81,28.25,15.1-2.12,6-8,10.2-14.12,11.92s-12.7,1.39-19.09.88l0-6.4" transform="translate(0 5.5)"/><path class="cls-5" d="M738.33,1120.28a29.41,29.41,0,0,0,23.29-.4l-.74,75.54c-.06,6.16-.24,12.73-3.75,17.79s-11.68,7.3-15.84,2.76" transform="translate(0 5.5)"/><path class="cls-5" d="M855.65,1125.46c-5.18-.73-10.46-1.45-15.63-.59s-10.28,3.57-12.76,8.18c-1.92,3.56-2.06,7.78-2.16,11.83q-.78,32.38-1.57,64.76a103.5,103.5,0,0,1,42.83-3.19l-1.32,4" transform="translate(0 5.5)"/><path class="cls-5" d="M868.55,1141.63l-2,27.39a25.63,25.63,0,0,0,23.58-9,285.37,285.37,0,0,0-1.8,48.81l.26-10.69" transform="translate(0 5.5)"/><path class="cls-5" d="M896.92,1127.65a28.05,28.05,0,0,0,25.63-1,750.37,750.37,0,0,0-3,86.65l-11.39,2.78,3.78-.07" transform="translate(0 5.5)"/><path class="cls-5" d="M990.81,1137c-4.93-3-10-6.17-15.81-6.91s-12.32,1.59-14.69,6.88a20.67,20.67,0,0,0-1.3,7.38l-3.83,74.48,32.27-1.18a3.18,3.18,0,0,1-2.63,3.65" transform="translate(0 5.5)"/><path class="cls-5" d="M1002.9,1167.92c.41-7,2.15-15.42,8.81-17.46,5.47-1.67,11.5,2.76,12.86,8.31s-1.07,11.48-4.91,15.71-8.92,7.1-13.91,9.89c4.84-1.49,9.8-3,14.86-2.76s10.32,2.51,12.76,6.94c3.62,6.59-.52,15.26-6.9,19.21s-14.26,4.42-21.76,4.78" transform="translate(0 5.5)"/><path class="cls-5" d="M1029.57,1135.87c6.76-2.26,15.48-4,19.93,1.57,2.31,2.88,2.57,6.83,2.74,10.51l3,65.77c.24,5.3.42,10.88-2,15.58s-8.5,8-13.2,5.52" transform="translate(0 5.5)"/><path class="cls-5" d="M1149.94,1134.8a44.89,44.89,0,0,0-39.36,4.65l-3.36,97,38.66,1.69a6.33,6.33,0,0,1-2.71,7" transform="translate(0 5.5)"/><path class="cls-5" d="M1160.09,1171.07c-2.25-4.62,1.29-10.64,6.27-11.89s10.35,1.5,13.29,5.71,3.76,9.56,3.6,14.69a44,44,0,0,1-23.06,36.78l29.69-4.26" transform="translate(0 5.5)"/><path class="cls-5" d="M1196.68,1129.19a2.28,2.28,0,0,1-2.86-2.09l20.82,1.06a445.53,445.53,0,0,0,3.73,88.8c1,6.84,2.07,14-.44,20.48s-10.13,11.44-16.4,8.52" transform="translate(0 5.5)"/><path class="cls-5" d="M1289.63,1145.67c-2.68-4.78-9.75-5.76-14.45-2.93s-7.17,8.39-7.72,13.85.5,10.92,1.35,16.34a207.63,207.63,0,0,1-.48,66.75l26.37-4a.78.78,0,1,1-.31.92" transform="translate(0 5.5)"/><path class="cls-5" d="M1319,1211.77l27.09-57.46,1.42,82.38-4.21-8" transform="translate(0 5.5)"/><path class="cls-5" d="M1346.12,1140.42c.72,6.69,9.24,9.46,15.91,8.52s13.28-4,19.86-2.57q.34,52.59.7,105.18l-23.53,1.58" transform="translate(0 5.5)"/><path class="cls-5" d="M79.57,1342.55A61.13,61.13,0,0,1,55.24,1340q2.71,58.4,1,116.87l20.5,1.69" transform="translate(0 5.5)"/><path class="cls-5" d="M113.85,1373.13c-8.93-3.19-20.32,0-24.64,8.5s1.27,20.83,10.73,21.6c5.51.45,10.68-2.67,14.83-6.31,6.35-5.57,11.6-14.26,8.62-22.16a30.47,30.47,0,0,0-29.92,10.55" transform="translate(0 5.5)"/><path class="cls-5" d="M125.06,1405.86c-3.5,11.56,4.55,25.45-2.08,35.55-3,4.65-8.64,7.13-14.17,7.73s-11.08-.42-16.55-1.44" transform="translate(0 5.5)"/><path class="cls-5" d="M136,1346.68a40.64,40.64,0,0,0,26,1.49,735.21,735.21,0,0,0,1.59,111.25l-15.11,1.94" transform="translate(0 5.5)"/><path class="cls-5" d="M273.62,1354.45l-30.71-3.79L235.3,1457.8l28.6-5.37" transform="translate(0 5.5)"/><path class="cls-5" d="M335.85,1406.94c5.81,7.85,6,19.26.92,27.63s-14.77,13.51-24.54,13.67c-7.15.11-14.5-2.41-19.41-7.61s-7-13.19-4.43-19.86c3-7.72,11.19-12.15,19.21-14.22,13.34-3.44,38-3.75,39.6-22.5.89-10.4-8.51-18.65-17.85-21.08-8.69-2.27-19.24-.8-22,9.09C302.52,1389.39,328,1396.29,335.85,1406.94Z" transform="translate(0 5.5)"/><path class="cls-5" d="M349.17,1354a25.57,25.57,0,0,0,25,3.71l-.63,68.18c-.09,9.16-.27,18.72-4.48,26.87s-13.77,14.31-22.51,11.52l3,3.76,1.44-9.84" transform="translate(0 5.5)"/><path class="cls-5" d="M344.66,698.52l-28.54,78.55" transform="translate(0 5.5)"/><path class="cls-5" d="M302.45,760.59l-.36,47.63,29.31-22.78" transform="translate(0 5.5)"/><path class="cls-5" d="M549.11,693.86a606.38,606.38,0,0,1,45.21,76.94" transform="translate(0 5.5)"/><path class="cls-5" d="M579.64,780.83a18.68,18.68,0,0,1-8.77,2.78A173.26,173.26,0,0,1,605,808.25a156,156,0,0,1,2.62-40.52l.3,3.87" transform="translate(0 5.5)"/><path class="cls-5" d="M929.64,692,906.1,809.57l-1.05-6.31" transform="translate(0 5.5)"/><path class="cls-5" d="M879.33,796.32l4.18,46.28,43.11-44" transform="translate(0 5.5)"/><path class="cls-5" d="M1084,701.23c16.87,9.67,28.15,26.51,38.83,42.76q28,42.56,55.91,85.13a6,6,0,0,0-2.46-6.88" transform="translate(0 5.5)"/><path class="cls-5" d="M1149.6,833.4,1192,862.87a152.59,152.59,0,0,1,.78-51.34" transform="translate(0 5.5)"/><path class="cls-5" d="M268.72,992.23a372,372,0,0,1-19.93,58.65" transform="translate(0 5.5)"/><path class="cls-5" d="M232.37,1038.5l-1,41.45c20-4.38,36.29-18.48,51.63-32.08" transform="translate(0 5.5)"/><path class="cls-5" d="M388.33,985.55A222.52,222.52,0,0,0,426.42,1056" transform="translate(0 5.5)"/><path class="cls-5" d="M407,1060a67.68,67.68,0,0,0,23.64,31.29,98,98,0,0,0,10.47-32.2" transform="translate(0 5.5)"/><path class="cls-5" d="M592.09,988.86l-15.26,89.64" transform="translate(0 5.5)"/><path class="cls-5" d="M556.69,1057.83l7.76,39c.41,2.08,1.13,4.52,3.16,5.15,2.27.72,4.39-1.37,5.87-3.24l26-32.86" transform="translate(0 5.5)"/><path class="cls-5" d="M642,994.59l35.23,86.9" transform="translate(0 5.5)"/><path class="cls-5" d="M642.42,1065.49A341.4,341.4,0,0,0,675.85,1107a14.52,14.52,0,0,1,8.23-14.44c3.61-1.62,7.89-1.73,11.13-4s4-8.44.15-9.49" transform="translate(0 5.5)"/><path class="cls-5" d="M891.89,989.2l-32.48,84.61,1.62-3.66" transform="translate(0 5.5)"/><path class="cls-5" d="M826.63,1066a97.39,97.39,0,0,1,7.13,44,50.6,50.6,0,0,0,34.56-23.1" transform="translate(0 5.5)"/><path class="cls-5" d="M961.15,998.79a339.41,339.41,0,0,0,19.57,80.66,8.75,8.75,0,0,0-4.1-8" transform="translate(0 5.5)"/><path class="cls-5" d="M951.2,1078.8a124.18,124.18,0,0,0,32.55,39l14.38-40.9" transform="translate(0 5.5)"/><path class="cls-5" d="M1159.81,1008q-7.23,40.23-18.36,79.61l.24-3.74" transform="translate(0 5.5)"/><path class="cls-5" d="M1126.55,1070.15l.74,44.32,29.26-30,1-4.63" transform="translate(0 5.5)"/><path class="cls-5" d="M1244.94,1022a444.22,444.22,0,0,0,34.4,74.27" transform="translate(0 5.5)"/><path class="cls-5" d="M1252.08,1086.34l30.35,30.32,4.62-49.31" transform="translate(0 5.5)"/><path class="cls-5" d="M156.2,1220.46l-25,68.19" transform="translate(0 5.5)"/><path class="cls-5" d="M115.14,1283.38l.68-6.49q-.34,20.83-.7,41.65a201.68,201.68,0,0,0,44.95-31.65" transform="translate(0 5.5)"/><path class="cls-5" d="M269.9,1219.75,311.47,1313l-4.89-7.58" transform="translate(0 5.5)"/><path class="cls-5" d="M277.4,1303.08a219.31,219.31,0,0,1,38.36,32.48,359.14,359.14,0,0,0,11.09-50.84" transform="translate(0 5.5)"/><path class="cls-5" d="M539.56,412.71a463,463,0,0,0-21.89,69.23" transform="translate(0 5.5)"/><path class="cls-5" d="M498.14,463.86l1.08,64.19,32.69-25.44" transform="translate(0 5.5)"/><path class="cls-5" d="M885.1,417.44l47.43,93.69" transform="translate(0 5.5)"/><path class="cls-5" d="M897.06,507.68l38.12,44.43,23.91-54.44" transform="translate(0 5.5)"/><path class="cls-5" d="M622.85,65.19a183.23,183.23,0,0,0-44.08,71l.15-6.11" transform="translate(0 5.5)"/><path class="cls-5" d="M560.8,60c13.26,1.38,26.67.22,40,1.23s27.06,4.53,36.76,13.68,13.9,25,6.66,36.25c-5.62,8.7-16.21,12.52-26,15.78l-73,24.2,6.79,2.72" transform="translate(0 5.5)"/><path class="cls-5" d="M670.59,107.05l-21.83,32.28,26,2.23" transform="translate(0 5.5)"/><path class="cls-5" d="M684,75l-1.84-1.84" transform="translate(0 5.5)"/><path class="cls-5" d="M698.6,109.87a56.61,56.61,0,0,1-1.19,35,296,296,0,0,1,36.47-38.61" transform="translate(0 5.5)"/><path class="cls-5" d="M763.07,113.56a157.24,157.24,0,0,1-22.25,47.61" transform="translate(0 5.5)"/><path class="cls-5" d="M815.74,129.39a32.48,32.48,0,0,0-18.62,12.46c-11.19,15.51-1.53,28.08,12.17,12.94,13.17-14.57,21.64-40.19,31.13-57.52" transform="translate(0 5.5)"/><path class="cls-5" d="M842.41,154.49a47.72,47.72,0,0,0,25-15.6c4.08-4.88,6.64-13.28,1.33-16.77-3.31-2.18-7.77-.9-11.23,1-7.87,4.37-14.11,12.13-15.32,21s3.34,18.68,11.54,22.38,19.35-.13,22.53-8.55" transform="translate(0 5.5)"/><path class="cls-5" d="M513.41,164.87l-10.63.58a3378.83,3378.83,0,0,1,388.81,21.91l2.17,8.61" transform="translate(0 5.5)"/><path class="cls-5" d="M540.92,462a35.32,35.32,0,0,0,3.54,20.88c-2.09-8.71,4.3-18.5,13.12-20.09" transform="translate(0 5.5)"/><path class="cls-5" d="M572.48,478.22c-1,2.28.81,5.11,3.24,5.77s5-.38,7-1.93a11,11,0,0,0,4.45-9c-.23-3.47-3-6.8-6.47-7.06a8,8,0,0,0-7,3.91,16.11,16.11,0,0,0-2.17,8c-.17,3.72.36,7.63,2.51,10.67s6.24,4.92,9.74,3.64" transform="translate(0 5.5)"/><path class="cls-5" d="M618.68,468.26a16.61,16.61,0,0,0-9.79,10.3c-1.07,3.35-.91,7.36,1.45,10s7.23,2.83,9.11-.14" transform="translate(0 5.5)"/><path class="cls-5" d="M630.65,469.62l-.2,16.24c0,1.94.13,4.23,1.76,5.27a3.86,3.86,0,0,0,4.27-.47,10.05,10.05,0,0,0,2.63-3.68A56.72,56.72,0,0,0,644,471.74" transform="translate(0 5.5)"/><path class="cls-5" d="M656.91,478l5.92,17.76a12.24,12.24,0,0,1,10.94-20.49" transform="translate(0 5.5)"/><path class="cls-5" d="M698.68,473.74l-3.45-.05c-3.81,6.83-.14,16.68,7.22,19.34l-12.66,8.3" transform="translate(0 5.5)"/><path class="cls-5" d="M717.07,491.4c4.49.56,9.46-1.21,11.73-5.12s.75-9.83-3.5-11.37c-4.68-1.7-9.77,2.46-11.2,7.23s-.16,10.33,3.67,13.41,10.17,2.83,13.25-1" transform="translate(0 5.5)"/><path class="cls-5" d="M939.75,444.18l13.48,29.67c-3.23-13,7.37-27.6,20.73-28.56" transform="translate(0 5.5)"/><path class="cls-5" d="M360.44,728.15a153.53,153.53,0,0,0,12.36,40c-5.32-15.54,1.27-34.31,15.13-43.11" transform="translate(0 5.5)"/><path class="cls-5" d="M599.62,717a55.09,55.09,0,0,0,14,21.25c-2.71-5.89.64-13.77,6.77-15.9" transform="translate(0 5.5)"/><path class="cls-5" d="M935.32,740.87a83,83,0,0,0,3.57,34.53c-4.48-12.79,3.72-28.51,16.76-32.15" transform="translate(0 5.5)"/><path class="cls-5" d="M1150,735.37a34.35,34.35,0,0,0,6,23.43,34,34,0,0,1,16.72-31.26" transform="translate(0 5.5)"/><path class="cls-5" d="M286.73,1008.36a37.84,37.84,0,0,0,9.78,29.34l12.87-11.14" transform="translate(0 5.5)"/><path class="cls-5" d="M425.36,1014.2l9.53,27c-4.32-10.53,1.44-24,12-28.22" transform="translate(0 5.5)"/><path class="cls-5" d="M541.59,1024.77l11.76,18.4c-4.71-7.94.54-19.81,9.58-21.66" transform="translate(0 5.5)"/><path class="cls-5" d="M665,1014.42l4,11.81q5.31-14.4,10.61-28.79" transform="translate(0 5.5)"/><path class="cls-5" d="M821.91,1025.22a29.22,29.22,0,0,0,10.66,24c-4.42-9.44,4.25-22.11,14.64-21.42" transform="translate(0 5.5)"/><path class="cls-5" d="M973.84,1027a29,29,0,0,1,7.33,16l.29-15.71L994,1027" transform="translate(0 5.5)"/><path class="cls-5" d="M1159.44,1043.41a48.57,48.57,0,0,1,3.35,24.94,42.8,42.8,0,0,1,8.53-23.46" transform="translate(0 5.5)"/><path class="cls-5" d="M1263.38,1032.62l6.78,24.45a67.27,67.27,0,0,0,18.79-29.59" transform="translate(0 5.5)"/><path class="cls-5" d="M102.5,1245.33l8,31.41,16.39-20" transform="translate(0 5.5)"/><path class="cls-5" d="M305.33,1253.13l16.34,28.12,8-28.65" transform="translate(0 5.5)"/></svg>